<svg width="52" height="52" viewBox="0 0 52 52" fill="none" xmlns="http://www.w3.org/2000/svg">
<g clip-path="url(#clip0_34_932)">
<path d="M1.30005 0.866638H25.5667V42.4666H1.30005V0.866638Z" fill="#B6C48D"/>
<path d="M48.9667 17.4565V6.06667C48.9667 2.71595 46.2507 0 42.9 0C39.5493 0 36.8334 2.71595 36.8334 6.06667V47.6667C36.8334 49.1025 35.6692 50.2667 34.2333 50.2667H16.9C15.4642 50.2667 14.3 49.1025 14.3 47.6667V45.9333H15.1667C15.6453 45.9333 16.0333 45.5453 16.0333 45.0667V43.3333H29.0333C29.512 43.3333 29.9 42.9453 29.9 42.4667V0.866667C29.9 0.388053 29.512 0 29.0333 0H1.30002C0.821403 0 0.43335 0.388053 0.43335 0.866667V42.4667C0.43335 42.9453 0.821403 43.3333 1.30002 43.3333H10.8333V45.0667C10.8333 45.5453 11.2214 45.9333 11.7 45.9333H12.5667V47.6667C12.5696 50.0589 14.5078 51.997 16.9 52H34.2333C36.6256 51.997 38.5637 50.0589 38.5667 47.6667V6.06667C38.5667 3.6736 40.507 1.73333 42.9 1.73333C45.2931 1.73333 47.2333 3.6736 47.2333 6.06667V17.4565C45.7074 17.8505 44.6393 19.2241 44.6334 20.8V23.4C44.6334 23.8786 45.0214 24.2667 45.5 24.2667V26H47.2333V24.2667H48.9667V26H50.7V24.2667C51.1786 24.2667 51.5667 23.8786 51.5667 23.4V20.8C51.5608 19.2241 50.4927 17.8505 48.9667 17.4565ZM2.16668 31.2V22.5333H7.60747C7.75897 22.7923 7.97437 23.0077 8.23335 23.1592V30.5741C7.97437 30.7256 7.75897 30.941 7.60747 31.2H2.16668ZM7.60747 12.1333C7.75897 12.3923 7.97437 12.6077 8.23335 12.7592V20.1741C7.97437 20.3256 7.75897 20.541 7.60747 20.8H2.16668V12.1333H7.60747ZM24.7 12.1333V20.8H19.2592C19.1077 20.541 18.8923 20.3256 18.6334 20.1741V12.7592C18.8923 12.6077 19.1077 12.3923 19.2592 12.1333H24.7ZM19.2592 31.2C19.1077 30.941 18.8923 30.7256 18.6334 30.5741V23.1592C18.8923 23.0077 19.1077 22.7923 19.2592 22.5333H24.7V31.2H19.2592ZM10.5926 31.2C10.4411 30.941 10.2257 30.7256 9.96668 30.5741V23.1592C10.2257 23.0077 10.4411 22.7923 10.5926 22.5333H16.2741C16.4256 22.7923 16.641 23.0077 16.9 23.1592V30.5741C16.641 30.7256 16.4256 30.941 16.2741 31.2H10.5926ZM16.2741 12.1333C16.4256 12.3923 16.641 12.6077 16.9 12.7592V20.1741C16.641 20.3256 16.4256 20.541 16.2741 20.8H10.5926C10.4411 20.541 10.2257 20.3256 9.96668 20.1741V12.7592C10.2257 12.6077 10.4411 12.3923 10.5926 12.1333H16.2741ZM16.9 9.77412C16.641 9.92562 16.4256 10.141 16.2741 10.4H10.5926C10.4411 10.141 10.2257 9.92562 9.96668 9.77412V1.73333H16.9V9.77412ZM9.96668 33.5592C10.2257 33.4077 10.4411 33.1923 10.5926 32.9333H16.2741C16.4256 33.1923 16.641 33.4077 16.9 33.5592V41.6H9.96668V33.5592ZM18.6334 41.6V33.5592C18.8923 33.4077 19.1077 33.1923 19.2592 32.9333H24.7V41.6H18.6334ZM28.1667 41.6H26.4333V1.73333H28.1667V41.6ZM24.7 10.4H19.2592C19.1077 10.141 18.8923 9.92562 18.6334 9.77412V1.73333H24.7V10.4ZM8.23335 1.73333V9.77412C7.97437 9.92562 7.75897 10.141 7.60747 10.4H2.16668V1.73333H8.23335ZM2.16668 32.9333H7.60747C7.75897 33.1923 7.97437 33.4077 8.23335 33.5592V41.6H2.16668V32.9333ZM14.3 43.3333V44.2H12.5667V43.3333H14.3ZM46.3667 20.8C46.3667 19.8428 47.1428 19.0667 48.1 19.0667C49.0572 19.0667 49.8334 19.8428 49.8334 20.8V22.5333H46.3667V20.8Z" fill="#779426"/>
</g>
<defs>
<clipPath id="clip0_34_932">
<rect width="52" height="52" fill="white"/>
</clipPath>
</defs>
</svg>
