<svg width="52" height="52" viewBox="0 0 52 52" fill="none" xmlns="http://www.w3.org/2000/svg">
<g clip-path="url(#clip0_34_933)">
<path d="M36.9201 31.4035L32.4916 26.975L30.0388 29.4277L34.9265 34.3158L38.6187 38.0076L41.0626 35.5549L36.9201 31.4035Z" fill="#B6C48D"/>
<path d="M19.0061 24.5223L14.2826 29.2458L10.4258 33.1022L12.8785 35.5549L21.4584 26.975L19.0061 24.5223Z" fill="#B6C48D"/>
<path d="M15.5915 19.8855L14.716 19.0104L4.91394 28.8124L6.99386 30.8923L9.81052 33.7175L10.4258 33.1022L14.2827 29.2458L19.6215 23.907L15.5915 19.8855Z" fill="#B6C48D"/>
<path d="M26 13.975C21.7314 13.9733 17.7769 16.2187 15.5916 19.8855L14.716 19.0104L4.91396 28.8124L6.99388 30.8923L6.7167 31.1695L0.866699 30.4416V21.775L6.7167 21.0471C7.17754 19.2969 7.87451 17.6173 8.78815 16.0549L5.16533 11.4008L11.2925 5.27361L15.9466 8.89643C17.509 7.98279 19.1886 7.28582 20.9388 6.82498L21.6667 0.974976H30.3334L31.0612 6.82498C32.8115 7.28582 34.4911 7.98279 36.0535 8.89643L40.7076 5.27361L46.8347 11.4008L43.2119 16.0549C44.1256 17.6173 44.8225 19.2969 45.2834 21.0471L51.1334 21.775V30.4416L46.3582 31.0396L37.466 22.1478C35.7792 17.2563 31.1742 13.9741 26 13.975Z" fill="#B6C48D"/>
<path d="M46.3582 31.0396L37.466 22.1478L36.166 20.8478L31.2605 25.7529L32.4915 26.975L36.9201 31.4036L41.0625 35.5549L42.2931 36.7771L43.5931 35.4771L47.1986 31.8805L46.3582 31.0396Z" fill="#B6C48D"/>
<path d="M36.7771 20.2342C36.4331 19.9088 35.8952 19.9088 35.5516 20.2342L30.6487 25.1367C30.3105 25.4753 30.3105 26.0237 30.6487 26.3622L31.2614 26.975L29.6064 28.6305L28.2784 28.8945L25.7462 26.3622C25.5837 26.1997 25.3632 26.1083 25.1334 26.1083H21.8157L20.2305 24.524C20.569 24.1858 20.569 23.637 20.2305 23.2984L15.3288 18.3951C15.1663 18.2322 14.9458 18.1407 14.7156 18.1407C14.4854 18.1407 14.2649 18.2322 14.1024 18.3951L4.297 28.2005C3.95846 28.5391 3.95846 29.0875 4.297 29.426L9.19993 34.3285C9.53805 34.6671 10.0869 34.6671 10.425 34.3285L16.0524 39.9559C15.6745 40.7371 15.7143 41.6559 16.1587 42.4011C16.603 43.1463 17.3922 43.6185 18.2589 43.6575C18.3143 44.9888 19.382 46.0544 20.7133 46.1077C20.77 47.4352 21.8335 48.4982 23.161 48.5549C23.2156 49.5765 23.8651 50.4702 24.8194 50.838C25.7741 51.2053 26.8553 50.978 27.581 50.2569L28.5023 51.1782C29.2251 51.9107 30.3131 52.1456 31.2741 51.777C32.2351 51.408 32.8864 50.5053 32.9334 49.477C34.263 49.4224 35.3281 48.3569 35.3827 47.0272C36.7128 46.971 37.7788 45.9054 37.8351 44.5754C38.8596 44.5263 39.7584 43.8771 40.127 42.9203C40.496 41.9631 40.2649 40.8789 39.5383 40.1553L38.6213 39.2382L41.0707 36.7838L41.6834 37.3974C42.0215 37.736 42.5704 37.736 42.9085 37.3974L47.8115 32.4949C48.15 32.1564 48.15 31.6079 47.8115 31.2694L36.7771 20.2342ZM31.5682 34.6353C31.9068 34.9739 31.9068 35.5223 31.5682 35.8609C31.2259 36.1897 30.6855 36.1897 30.3431 35.8609L26.6657 32.1847C26.3272 31.8462 25.7787 31.8462 25.4402 32.1847C24.4246 33.2008 22.7776 33.2008 21.7619 32.1847L20.5402 33.4098C20.8546 33.7192 21.2148 33.9782 21.6079 34.1779L17.1696 38.6187L14.1024 35.5549L21.8157 27.8417H24.7745L31.5682 34.6353ZM9.81523 32.4903L6.13528 28.8133L14.7152 20.2334L18.3926 23.9103L9.81523 32.4903ZM19.0079 25.7495L20.2317 26.975L12.8761 34.3285L11.6505 33.103L19.0079 25.7495ZM25.7402 49.2832C25.5126 49.284 25.2942 49.1948 25.1334 49.0344C24.8004 48.7001 24.7961 48.1605 25.1237 47.8211L26.9145 46.0302L27.5827 45.3637L26.3589 44.1348L25.689 44.8051L23.9011 46.5859L23.8931 46.5956C23.5482 46.9032 23.0222 46.8859 22.6984 46.5558C22.3743 46.2262 22.3662 45.7002 22.6798 45.3603L25.1334 42.9085L23.9079 41.6834L21.4568 44.1348C21.1187 44.4738 20.5698 44.4738 20.2309 44.1352C19.8923 43.7971 19.8923 43.2483 20.2305 42.9097L22.6823 40.4587L21.4568 39.2332L19.0045 41.6842C18.6617 42.0117 18.1222 42.0117 17.7798 41.6842C17.4413 41.3457 17.4413 40.7972 17.7798 40.4587L23.5736 34.6624C24.4322 34.6751 25.2756 34.431 25.995 33.9612L29.1201 37.0864C30.1493 38.0686 31.7684 38.0686 32.7971 37.0864C33.8123 36.0712 33.8123 34.4254 32.7971 33.4098L29.7553 30.368L37.3958 38.0076L37.136 38.2675C36.381 38.0584 35.5719 38.2053 34.938 38.6657C34.3045 39.1265 33.9156 39.851 33.8817 40.6335C32.5428 40.6902 31.4739 41.7688 31.4298 43.1082C30.0998 43.1412 29.0262 44.2051 28.9805 45.5347C28.1989 45.5681 27.4753 45.9558 27.0144 46.5876C26.5532 47.2194 26.405 48.0268 26.612 48.7813L26.3517 49.0411C26.1884 49.1998 25.9679 49.287 25.7402 49.2832ZM30.9555 49.9565C30.6131 50.2844 30.0727 50.2844 29.7304 49.9565L28.504 48.7284C28.2006 48.3852 28.2167 47.8656 28.5404 47.5418C28.8637 47.2181 29.3834 47.2016 29.7266 47.5046L30.9555 48.7284C31.1192 48.8901 31.2106 49.1105 31.2098 49.3403C31.2106 49.5714 31.1192 49.7931 30.9555 49.9565ZM33.4065 47.5046C33.068 47.8431 32.5195 47.8431 32.181 47.5046L30.9555 46.2791C30.793 46.1166 30.7016 45.8961 30.7016 45.6659C30.7016 45.4361 30.793 45.2152 30.9555 45.0527C31.1171 44.8893 31.3376 44.7979 31.5674 44.7988C31.7972 44.7988 32.0176 44.8902 32.1801 45.0527L33.4057 46.2782C33.5686 46.4407 33.66 46.6612 33.6604 46.8914C33.6604 47.1212 33.5694 47.3421 33.4065 47.5046ZM35.8567 45.0527C35.5143 45.3802 34.9744 45.3802 34.632 45.0527L33.4065 43.8272C33.0781 43.4874 33.0828 42.9465 33.4171 42.6122C33.7514 42.2779 34.2918 42.2733 34.632 42.6017L35.8575 43.8272C36.02 43.9897 36.1115 44.2101 36.1115 44.4399C36.1123 44.6701 36.0205 44.891 35.8567 45.0527ZM38.3094 42.6017C38.1469 42.7646 37.926 42.856 37.6962 42.856C37.466 42.856 37.2456 42.7646 37.0831 42.6017L35.8575 41.3766C35.5186 41.0376 35.5182 40.4883 35.8567 40.1493C36.1952 39.81 36.7449 39.8095 37.0839 40.1485L38.3069 41.3766C38.645 41.7147 38.645 42.2635 38.3069 42.6017H38.3094ZM38.6162 36.7796L31.2623 29.426L32.4869 28.2005L39.8418 35.5549L38.6162 36.7796ZM42.2932 35.5549L32.4869 25.7495L36.1643 22.0721L45.9698 31.8779L42.2932 35.5549Z" fill="#779426"/>
<path d="M51.2408 20.9151L45.963 20.2558C45.5427 18.8246 44.9693 17.4434 44.2521 16.1357L47.5202 11.9332C47.789 11.5879 47.7585 11.0966 47.4492 10.7872L41.3211 4.65918C41.0118 4.34984 40.5205 4.31937 40.1752 4.58809L35.9726 7.85629C34.665 7.139 33.2837 6.5656 31.8525 6.14538L31.1932 0.867517C31.1391 0.433761 30.7705 0.108337 30.3333 0.108337H21.6667C21.2295 0.108337 20.8609 0.433761 20.8068 0.867517L20.1475 6.14538C18.7163 6.5656 17.335 7.139 16.0274 7.85629L11.8248 4.58809C11.4795 4.31937 10.9882 4.34984 10.6789 4.65918L4.55085 10.7872C4.2415 11.0966 4.21104 11.5879 4.47975 11.9332L7.74795 16.1357C7.03066 17.4434 6.45726 18.8246 6.03704 20.2558L0.75918 20.9151C0.325423 20.9693 0 21.3379 0 21.775V30.4417C0 30.8788 0.325423 31.2474 0.75918 31.3016L3.35918 31.6266L3.57415 29.9068L1.73333 29.6766V22.5401L6.825 21.9032C7.17708 21.8596 7.46654 21.6057 7.55667 21.263C7.99508 19.5914 8.66032 17.988 9.53333 16.4971C9.71234 16.1912 9.68695 15.8069 9.46901 15.5272L6.31465 11.4719L11.361 6.42553L15.4163 9.58031C15.6969 9.79825 16.0824 9.82237 16.3888 9.64167C17.8801 8.76781 19.4835 8.10173 21.1555 7.66205C21.4982 7.57233 21.7521 7.28246 21.7957 6.9308L22.4318 1.84167H29.5682L30.2051 6.93334C30.2487 7.28542 30.5026 7.57487 30.8454 7.66501C32.5169 8.10342 34.1203 8.76866 35.6112 9.64167C35.9172 9.82067 36.3014 9.79528 36.5811 9.57735L40.6364 6.42299L45.6828 11.4694L42.528 15.5247C42.3101 15.8052 42.286 16.1908 42.4667 16.4971C43.3405 17.9884 44.0066 19.5918 44.4463 21.2638C44.536 21.6066 44.8259 21.8605 45.1775 21.9041L50.2667 22.5401V29.6766L49.2925 29.7984L49.5075 31.5182L51.2408 31.3016C51.6746 31.2474 52 30.8788 52 30.4417V21.775C52 21.3379 51.6746 20.9693 51.2408 20.9151Z" fill="#779426"/>
<path d="M25.1333 5.30835H26.8666V7.04168H25.1333V5.30835Z" fill="#779426"/>
<path d="M10.6788 12.0128L11.9044 10.7872L13.1303 12.0128L11.9044 13.2387L10.6788 12.0128Z" fill="#779426"/>
<path d="M45.0667 25.2417H46.8V26.975H45.0667V25.2417Z" fill="#779426"/>
<path d="M38.8696 12.0132L40.0951 10.7872L41.3211 12.0132L40.0951 13.2387L38.8696 12.0132Z" fill="#779426"/>
<path d="M17.952 18.2216C20.1771 15.9508 23.2574 14.7257 26.4342 14.848C29.6105 14.9707 32.588 16.4294 34.6311 18.8648L35.9582 17.7485C33.6002 14.9403 30.1662 13.2586 26.5019 13.1176C22.838 12.9767 19.2846 14.3897 16.718 17.0083L17.952 18.2216Z" fill="#779426"/>
</g>
<defs>
<clipPath id="clip0_34_933">
<rect width="52" height="52" fill="white"/>
</clipPath>
</defs>
</svg>
