<svg width="52" height="52" viewBox="0 0 52 52" fill="none" xmlns="http://www.w3.org/2000/svg">
<path d="M12.1875 34.9375V45.0125V46.3125H5.6875V45.6625V34.9375V34.125H12.1875V34.9375Z" fill="#B6C48D"/>
<path d="M5.6875 34.9375V45.6625L1.625 46.3125V34.9375H5.6875Z" fill="#B6C48D"/>
<path d="M21.125 13.8125L26 30.0625L11.375 13.8125H21.125Z" fill="#B6C48D"/>
<path d="M40.625 13.8125L26 30.0625L30.875 13.8125H40.625Z" fill="#B6C48D"/>
<path d="M30.875 13.8125L26 30.0625L21.125 13.8125H30.875Z" fill="#B6C48D"/>
<path d="M35.75 5.6875L40.625 13.8125H30.875L35.75 5.6875Z" fill="#B6C48D"/>
<path d="M26 5.6875L30.875 13.8125H21.125L26 5.6875Z" fill="#B6C48D"/>
<path d="M26.8125 5.6875L21.9375 13.8125L17.0625 5.6875H26.8125Z" fill="#B6C48D"/>
<path d="M35.75 5.6875L30.875 13.8125L26 5.6875H35.75Z" fill="#B6C48D"/>
<path d="M16.25 5.6875L21.125 13.8125H11.375L16.25 5.6875Z" fill="#B6C48D"/>
<path d="M25.3963 30.6061C25.4724 30.6906 25.5656 30.7583 25.6696 30.8046C25.7736 30.8508 25.8861 30.8748 25.9999 30.8748C26.1138 30.8748 26.2263 30.8508 26.3303 30.8046C26.4343 30.7583 26.5274 30.6906 26.6036 30.6061L41.2286 14.3561C41.345 14.2268 41.4169 14.0635 41.4335 13.8903C41.4502 13.7172 41.4108 13.5432 41.3213 13.3941L36.4463 5.26906C36.3741 5.14888 36.272 5.04943 36.15 4.98038C36.028 4.91133 35.8901 4.87503 35.7499 4.875H16.2499C16.1097 4.87503 15.9719 4.91133 15.8499 4.98038C15.7279 5.04943 15.6258 5.14888 15.5536 5.26906L10.6786 13.3941C10.589 13.5432 10.5497 13.7172 10.5664 13.8903C10.583 14.0635 10.6549 14.2268 10.7713 14.3561L25.3963 30.6061ZM29.7829 14.625L25.9999 27.235L22.2169 14.625H29.7829ZM22.5598 13L25.9999 7.267L29.4401 13H22.5598ZM31.4794 14.625H38.8009L27.8191 26.8271L31.4794 14.625ZM27.4348 6.5H34.3151L30.8749 12.233L27.4348 6.5ZM21.1249 12.233L17.6848 6.5H24.5651L21.1249 12.233ZM19.6901 13H12.8098L16.2499 7.267L19.6901 13ZM20.5204 14.625L24.1767 26.8271L13.199 14.625H20.5204ZM39.1901 13H32.3098L35.7499 7.267L39.1901 13Z" fill="#779426"/>
<path d="M43.875 13H50.375V14.625H43.875V13Z" fill="#779426"/>
<path d="M43.5516 8.19476L49.239 5.75644L49.8793 7.24997L44.192 9.68829L43.5516 8.19476Z" fill="#779426"/>
<path d="M43.5564 19.4424L44.1967 17.9489L49.8841 20.3872L49.2437 21.8808L43.5564 19.4424Z" fill="#779426"/>
<path d="M1.625 13H8.125V14.625H1.625V13Z" fill="#779426"/>
<path d="M2.11731 7.24762L2.75762 5.75409L8.44497 8.19241L7.80466 9.68594L2.11731 7.24762Z" fill="#779426"/>
<path d="M2.11572 20.3774L7.80307 17.9391L8.44339 19.4326L2.75604 21.8709L2.11572 20.3774Z" fill="#779426"/>
<path d="M47.2469 34.0438C46.8138 33.2983 46.1034 32.7544 45.2708 32.5306C44.4382 32.3069 43.5509 32.4214 42.8025 32.8494L35.7094 36.9444C35.7314 36.8181 35.7449 36.6906 35.75 36.5625C35.7505 36.1356 35.6668 35.7127 35.5037 35.3182C35.3406 34.9236 35.1012 34.5651 34.7993 34.2632C34.4974 33.9613 34.1389 33.722 33.7444 33.5588C33.3498 33.3957 32.9269 33.312 32.5 33.3125H26.9669L24.5131 32.3294C23.4539 31.9047 22.3231 31.6868 21.1819 31.6875H20.1256C18.505 31.6848 16.9145 32.126 15.5269 32.9631L13.585 34.125H13C13 33.9095 12.9144 33.7029 12.762 33.5505C12.6096 33.3981 12.403 33.3125 12.1875 33.3125H5.6875C5.47201 33.3125 5.26534 33.3981 5.11297 33.5505C4.9606 33.7029 4.87499 33.9095 4.87499 34.125H1.625V35.75H4.87499V44.9719L1.495 45.5081L1.755 47.1169L4.93187 46.605C4.9921 46.7568 5.09608 46.8873 5.23062 46.9799C5.36516 47.0725 5.52419 47.123 5.6875 47.125H12.1875C12.403 47.125 12.6096 47.0394 12.762 46.887C12.9144 46.7347 13 46.528 13 46.3125V45.76L16.2337 45.5L26.5444 46.6456C27.0593 46.7078 27.5776 46.7376 28.0962 46.735C30.513 46.7321 32.8865 46.0932 34.9781 44.8825L46.0525 38.4881C46.4231 38.2751 46.7481 37.9911 47.0088 37.6523C47.2696 37.3135 47.4609 36.9266 47.5718 36.5138C47.6828 36.1009 47.7112 35.6702 47.6554 35.2464C47.5996 34.8225 47.4608 34.4139 47.2469 34.0438ZM11.375 45.5H6.5V34.9375H11.375V45.5ZM46.0037 36.0913C45.9486 36.2979 45.8527 36.4913 45.7215 36.6602C45.5903 36.8291 45.4266 36.9699 45.24 37.0744L34.1656 43.4688C31.9175 44.777 29.308 45.3268 26.7231 45.0369L16.3394 43.8831C16.2882 43.8764 16.2366 43.8737 16.185 43.875L13 44.135V35.75H13.8125C13.9583 35.75 14.1015 35.7107 14.2269 35.6363L16.3637 34.3606C17.4976 33.6723 18.7992 33.3096 20.1256 33.3125H21.1819C22.1148 33.3109 23.0391 33.4903 23.9037 33.8406L26.5119 34.8806C26.6072 34.9197 26.7095 34.9391 26.8125 34.9375H32.5C32.93 34.9407 33.3415 35.1129 33.6455 35.417C33.9496 35.721 34.1218 36.1325 34.125 36.5625C34.1237 36.9931 33.9521 37.4057 33.6476 37.7101C33.3432 38.0146 32.9306 38.1862 32.5 38.1875H24.375V39.8125H32.9144C33.628 39.8164 34.3296 39.6284 34.9456 39.2681L43.615 34.2631C43.8939 34.104 44.2134 34.0307 44.5338 34.0523C44.8541 34.074 45.1609 34.1896 45.4159 34.3847C45.6708 34.5798 45.8626 34.8458 45.9672 35.1493C46.0717 35.4529 46.0844 35.7805 46.0037 36.0913Z" fill="#779426"/>
<path d="M8.125 43.0625H9.75V44.6875H8.125V43.0625Z" fill="#779426"/>
</svg>
