<svg width="52" height="52" viewBox="0 0 52 52" fill="none" xmlns="http://www.w3.org/2000/svg">
<path d="M26 13.8125C28.4105 13.8125 30.7668 14.5273 32.771 15.8665C34.7752 17.2056 36.3373 19.1091 37.2598 21.336C38.1822 23.563 38.4236 26.0135 37.9533 28.3777C37.4831 30.7418 36.3223 32.9134 34.6179 34.6179C32.9134 36.3223 30.7418 37.4831 28.3777 37.9533C26.0135 38.4236 23.563 38.1822 21.336 37.2598C19.1091 36.3373 17.2056 34.7752 15.8665 32.771C14.5273 30.7668 13.8125 28.4105 13.8125 26C13.8136 22.768 15.098 19.6687 17.3833 17.3833C19.6687 15.098 22.768 13.8136 26 13.8125ZM32.3212 32.3212C33.7856 30.8586 34.6973 28.9335 34.9012 26.8739C35.1051 24.8143 34.5885 22.7477 33.4394 21.0264C32.2903 19.3051 30.5798 18.0355 28.5995 17.434C26.6192 16.8325 24.4916 16.9363 22.5792 17.7278C20.6669 18.5193 19.0882 19.9494 18.1122 21.7745C17.1362 23.5995 16.8233 25.7066 17.2268 27.7365C17.6302 29.7665 18.7252 31.5937 20.325 32.9067C21.9247 34.2198 23.9303 34.9375 26 34.9375C27.1741 34.9394 28.3369 34.7093 29.4218 34.2603C30.5066 33.8113 31.492 33.1523 32.3212 32.3212Z" fill="#B6C48D"/>
<path d="M47.125 26C47.1227 21.6825 45.7976 17.4694 43.3281 13.9279C40.8585 10.3864 37.3631 7.6866 33.3125 6.19208V9.68583C36.458 11.0981 39.1283 13.3893 41.0022 16.2836C42.8761 19.1779 43.8737 22.552 43.875 26H41.4375L43.68 28.6894L45.5 30.875L46.8813 29.2175L49.5625 26H47.125Z" fill="#B6C48D"/>
<path d="M42.3182 33.3125C40.9057 36.4586 38.6139 39.1294 35.7188 41.0033C32.8237 42.8773 29.4487 43.8745 26 43.875V41.4375L23.3106 43.68L21.125 45.5L22.7825 46.8813L26 49.5625V47.125C30.3175 47.1227 34.5307 45.7976 38.0722 43.3281C41.6136 40.8585 44.3134 37.3631 45.8079 33.3125H42.3182Z" fill="#B6C48D"/>
<path d="M29.2175 5.11875L26 2.4375V4.875C21.6824 4.87726 17.4693 6.20239 13.9278 8.67195C10.3863 11.1415 7.68654 14.6369 6.19202 18.6875H9.68577C11.0981 15.542 13.3892 12.8717 16.2835 10.9978C19.1778 9.12389 22.552 8.12628 26 8.125V10.5625L28.6893 8.32L30.875 6.5L29.2175 5.11875Z" fill="#B6C48D"/>
<path d="M8.125 26H10.5625L8.32 23.3106L6.5 21.125L5.11875 22.7825L2.4375 26H4.875C4.87676 30.1685 6.11216 34.2432 8.42554 37.7108C10.7389 41.1784 14.0268 43.8838 17.875 45.4862V41.9112C14.942 40.4144 12.4794 38.1366 10.7589 35.3289C9.03842 32.5212 8.12693 29.2929 8.125 26Z" fill="#B6C48D"/>
<path d="M26 13C23.4288 13 20.9154 13.7624 18.7776 15.1909C16.6398 16.6194 14.9735 18.6497 13.9896 21.0251C13.0056 23.4006 12.7482 26.0144 13.2498 28.5362C13.7514 31.0579 14.9895 33.3743 16.8076 35.1924C18.6257 37.0105 20.9421 38.2486 23.4638 38.7502C25.9856 39.2518 28.5995 38.9944 30.9749 38.0104C33.3503 37.0265 35.3807 35.3603 36.8091 33.2224C38.2376 31.0846 39 28.5712 39 26C38.9955 22.5536 37.6244 19.2496 35.1874 16.8126C32.7504 14.3756 29.4464 13.0045 26 13ZM26 37.375C23.7502 37.375 21.551 36.7079 19.6804 35.458C17.8098 34.2081 16.3518 32.4315 15.4909 30.353C14.6299 28.2745 14.4047 25.9874 14.8436 23.7808C15.2825 21.5743 16.3658 19.5475 17.9567 17.9567C19.5475 16.3658 21.5743 15.2825 23.7809 14.8436C25.9874 14.4047 28.2745 14.6299 30.353 15.4909C32.4315 16.3518 34.2081 17.8098 35.458 19.6804C36.7079 21.551 37.375 23.7502 37.375 26C37.3718 29.0158 36.1723 31.9072 34.0398 34.0398C31.9073 36.1723 29.0159 37.3718 26 37.375Z" fill="#779426"/>
<path d="M16.25 26C16.25 27.9284 16.8218 29.8134 17.8932 31.4168C18.9645 33.0202 20.4873 34.2699 22.2688 35.0078C24.0504 35.7458 26.0108 35.9389 27.9021 35.5627C29.7934 35.1865 31.5307 34.2579 32.8943 32.8943C34.2579 31.5307 35.1865 29.7934 35.5627 27.9021C35.9389 26.0108 35.7458 24.0504 35.0078 22.2688C34.2699 20.4873 33.0202 18.9645 31.4168 17.8932C29.8134 16.8218 27.9284 16.25 26 16.25C23.415 16.2528 20.9367 17.2809 19.1088 19.1088C17.2809 20.9367 16.2528 23.415 16.25 26ZM31.1707 21.9781L32.2871 20.8618C33.2996 22.0949 33.9246 23.5999 34.0836 25.1875H32.5V26.8125H34.0836C33.9246 28.4001 33.2996 29.9051 32.2871 31.1383L31.1707 30.0219L30.0219 31.1707L31.1383 32.2871C29.9051 33.2996 28.4001 33.9246 26.8125 34.0836V32.5H25.1875V34.0836C23.5999 33.9246 22.0949 33.2996 20.8618 32.2871L21.9781 31.1707L20.8292 30.0219L19.7129 31.1383C18.7004 29.9051 18.0754 28.4001 17.9164 26.8125H19.5V25.1875H17.9164C18.0754 23.5999 18.7004 22.0949 19.7129 20.8618L20.8292 21.9781L21.9781 20.8292L20.8618 19.7129C22.0949 18.7004 23.5999 18.0754 25.1875 17.9164V19.5H26.8125V17.9164C28.4001 18.0754 29.9051 18.7004 31.1383 19.7129L30.0219 20.8292L31.1707 21.9781Z" fill="#779426"/>
<path d="M25.1875 25.6636L22.988 27.8631L24.1369 29.0119L26.5744 26.5744C26.7268 26.4221 26.8124 26.2155 26.8125 26V21.125H25.1875V25.6636Z" fill="#779426"/>
<path d="M25.9999 5.68753C26.2154 5.68753 26.4221 5.60192 26.5744 5.44955C26.7268 5.29718 26.8124 5.09052 26.8124 4.87503V4.17221L29.605 6.50003L26.8124 8.82784V8.12503C26.8124 7.90954 26.7268 7.70288 26.5744 7.5505C26.4221 7.39813 26.2154 7.31253 25.9999 7.31253C22.3956 7.31621 18.8689 8.36011 15.8433 10.3189C12.8177 12.2777 10.4218 15.0681 8.94311 18.3552L10.4251 19.0198C11.7192 16.1448 13.7828 13.6834 16.3879 11.9074C18.993 10.1315 22.0383 9.11016 25.1874 8.95621V10.5625C25.1872 10.7171 25.2311 10.8686 25.3139 10.9991C25.3968 11.1297 25.5152 11.2338 25.6552 11.2994C25.7951 11.365 25.951 11.3893 26.1043 11.3695C26.2576 11.3496 26.4021 11.2864 26.5207 11.1873L31.3957 7.12484C31.4875 7.04859 31.5613 6.95309 31.6119 6.8451C31.6626 6.73712 31.6888 6.6193 31.6888 6.50003C31.6888 6.38075 31.6626 6.26294 31.6119 6.15495C31.5613 6.04697 31.4875 5.95146 31.3957 5.87521L26.5207 1.81271C26.4021 1.71361 26.2576 1.65043 26.1043 1.63057C25.951 1.61071 25.7951 1.63501 25.6552 1.70062C25.5152 1.76622 25.3968 1.8704 25.3139 2.00094C25.2311 2.13147 25.1872 2.28292 25.1874 2.43753V4.07796C20.8457 4.25002 16.6518 5.70202 13.1331 8.25135C9.61442 10.8007 6.9281 14.3335 5.41199 18.4056L6.93705 18.9695C8.38484 15.0784 10.9857 11.7218 14.3922 9.34844C17.7986 6.97505 21.8482 5.69784 25.9999 5.68753Z" fill="#779426"/>
<path d="M26 46.3125C25.7845 46.3125 25.5778 46.3981 25.4254 46.5505C25.2731 46.7029 25.1875 46.9095 25.1875 47.125V47.8279L22.3941 45.5L25.1875 43.1722V43.875C25.1875 44.0905 25.2731 44.2972 25.4254 44.4496C25.5778 44.6019 25.7845 44.6875 26 44.6875C29.6043 44.6839 33.131 43.64 36.1566 41.6812C39.1822 39.7224 41.5781 36.9319 43.0568 33.6449L41.5748 32.9802C40.2807 35.8553 38.2171 38.3167 35.612 40.0926C33.0069 41.8686 29.9616 42.8899 26.8125 43.0439V41.4375C26.8127 41.2829 26.7688 41.1315 26.6859 41.0009C26.6031 40.8704 26.4847 40.7662 26.3447 40.7006C26.2047 40.635 26.0489 40.6107 25.8956 40.6306C25.7423 40.6504 25.5978 40.7136 25.4791 40.8127L20.6041 44.8752C20.5124 44.9515 20.4386 45.047 20.388 45.155C20.3373 45.2629 20.311 45.3808 20.311 45.5C20.311 45.6193 20.3373 45.7371 20.388 45.8451C20.4386 45.9531 20.5124 46.0486 20.6041 46.1249L25.4791 50.1874C25.6257 50.3085 25.8098 50.3749 26 50.375C26.1191 50.3752 26.2368 50.3488 26.3445 50.2978C26.4843 50.2324 26.6025 50.1285 26.6854 49.9983C26.7683 49.868 26.8124 49.7169 26.8125 49.5625V47.9221C31.1542 47.75 35.3481 46.298 38.8668 43.7487C42.3855 41.1994 45.0718 37.6665 46.5879 33.5945L45.0628 33.0306C43.615 36.9217 41.0141 40.2782 37.6077 42.6516C34.2013 45.025 30.1517 46.3022 26 46.3125Z" fill="#779426"/>
<path d="M50.1881 26.52L46.1256 31.395C46.0494 31.487 45.9538 31.5611 45.8456 31.6119C45.7375 31.6627 45.6195 31.6891 45.5 31.6891C45.3805 31.6891 45.2625 31.6627 45.1543 31.6119C45.0462 31.5611 44.9506 31.487 44.8744 31.395L40.8119 26.52C40.713 26.4013 40.65 26.2568 40.6303 26.1035C40.6106 25.9503 40.635 25.7946 40.7007 25.6547C40.7664 25.5148 40.8706 25.3966 41.0011 25.3138C41.1316 25.2311 41.283 25.1873 41.4375 25.1875H43.0462C42.8902 22.0384 41.8676 18.9936 40.0913 16.3886C38.315 13.7837 35.8539 11.7198 32.9794 10.4244L33.6456 8.93751C36.9326 10.4178 39.7226 12.815 41.6812 15.8414C43.6397 18.8679 44.6836 22.3951 44.6875 26C44.6875 26.2155 44.6019 26.4222 44.4495 26.5745C44.2971 26.7269 44.0905 26.8125 43.875 26.8125H43.1681L45.5 29.6075L47.8319 26.8125H47.125C46.9095 26.8125 46.7028 26.7269 46.5505 26.5745C46.3981 26.4222 46.3125 26.2155 46.3125 26C46.301 21.8485 45.023 17.7993 42.6492 14.3933C40.2755 10.9873 36.919 8.38664 33.0281 6.93876L33.5969 5.41125C37.6682 6.92831 41.2002 9.61506 43.7489 13.1338C46.2976 16.6525 47.7492 20.8461 47.9212 25.1875H49.5625C49.717 25.1873 49.8684 25.2311 49.9989 25.3138C50.1294 25.3966 50.2336 25.5148 50.2993 25.6547C50.365 25.7946 50.3894 25.9503 50.3697 26.1035C50.35 26.2568 50.287 26.4013 50.1881 26.52Z" fill="#779426"/>
<path d="M7.31247 26C7.30435 29.4467 8.25286 32.8279 10.0524 35.7675C11.852 38.707 14.432 41.0895 17.5053 42.6498L18.2447 41.2027C15.5615 39.8407 13.2878 37.7909 11.656 35.2627C10.0241 32.7345 9.09243 29.8185 8.95615 26.8125H10.5625C10.7171 26.8127 10.8685 26.7689 10.9991 26.686C11.1296 26.6032 11.2338 26.4848 11.2994 26.3448C11.365 26.2048 11.3893 26.049 11.3694 25.8957C11.3496 25.7423 11.2864 25.5979 11.1873 25.4792L7.12478 20.6042C7.04579 20.5169 6.94938 20.4471 6.84176 20.3993C6.73414 20.3516 6.61771 20.3269 6.49997 20.3269C6.38223 20.3269 6.26579 20.3516 6.15817 20.3993C6.05056 20.4471 5.95414 20.5169 5.87515 20.6042L1.81265 25.4792C1.71355 25.5979 1.65036 25.7423 1.63051 25.8957C1.61065 26.049 1.63495 26.2048 1.70056 26.3448C1.76616 26.4848 1.87034 26.6032 2.00087 26.686C2.1314 26.7689 2.28286 26.8127 2.43747 26.8125H4.0779C4.22582 31.0053 5.57581 35.0671 7.96706 38.5143C10.3583 41.9614 13.6901 44.6486 17.5654 46.2556L18.191 44.7558C14.4842 43.2185 11.3172 40.6154 9.0913 37.2765C6.86537 33.9375 5.68072 30.0129 5.68747 26C5.68747 25.7845 5.60186 25.5779 5.44949 25.4255C5.29712 25.2731 5.09045 25.1875 4.87497 25.1875H4.17215L6.49997 22.3941L8.82778 25.1875H8.12497C7.90948 25.1875 7.70282 25.2731 7.55044 25.4255C7.39807 25.5779 7.31247 25.7845 7.31247 26Z" fill="#779426"/>
</svg>
