<svg width="52" height="52" viewBox="0 0 52 52" fill="none" xmlns="http://www.w3.org/2000/svg">
<g clip-path="url(#clip0_34_929)">
<path d="M44.2867 43.4806L44.1132 43.4286L41.9901 42.8221L39 45.0667L36.0098 42.8221L33.7132 43.4806C32.8334 43.7311 32.0886 44.3202 31.6417 45.1187C31.3531 45.6384 31.2012 46.2228 31.2 46.8174V48.282C32.2291 49.1584 33.4017 49.8503 34.6666 50.3272C37.4554 51.4021 40.5445 51.4021 43.3333 50.3272C44.5982 49.8503 45.7708 49.1584 46.8 48.282V46.8174C46.8016 45.2685 45.7759 43.9067 44.2867 43.4806Z" fill="#B6C48D"/>
<path d="M40.0486 30.4633C39.7058 30.3761 39.3537 30.3321 39 30.3333C36.6069 30.3333 34.6666 32.2736 34.6666 34.6667V35.5333H36.5561C36.7935 35.5321 37.0309 35.5177 37.2666 35.4902C38.0457 35.3814 38.7896 35.097 39.4418 34.6582L40.7333 33.8L41.1235 34.5715C41.3786 35.0962 41.886 35.4534 42.4666 35.516C42.5352 35.5304 42.605 35.5363 42.6748 35.5333H43.3333V34.6667C43.3329 32.6777 41.9783 30.9448 40.0486 30.4633Z" fill="#B6C48D"/>
<path d="M27.7334 26C27.7334 26.9572 26.9573 27.7333 26.0001 27.7333C25.0428 27.7333 24.2667 26.9572 24.2667 26C24.2667 25.0428 25.0428 24.2667 26.0001 24.2667C26.9573 24.2667 27.7334 25.0428 27.7334 26Z" fill="#B6C48D"/>
<path d="M51.1334 21.6666V30.3333L47.8749 30.7408C45.9905 28.6952 43.4535 27.3685 40.6987 26.9881C40.7249 26.6584 40.7334 26.3292 40.7334 26C40.7334 17.8631 34.1369 11.2666 26 11.2666C17.8632 11.2666 11.2667 17.8631 11.2667 26C11.2667 34.1368 17.8632 40.7333 26 40.7333C26.3293 40.7333 26.6585 40.7248 26.9882 40.6986C27.3686 43.4535 28.6952 45.9904 30.7409 47.8748L30.3334 51.1333H21.6667L20.9388 45.2833C19.1886 44.8225 17.509 44.1255 15.9466 43.2119L11.2925 46.8347L5.16533 40.7075L8.78815 36.0534C7.87451 34.491 7.17754 32.8114 6.7167 31.0612L0.866699 30.3333V21.6666L6.7167 20.9388C7.17754 19.1885 7.87451 17.5089 8.78815 15.9466L5.16533 11.2925L11.2925 5.16527L15.9466 8.78809C17.509 7.87445 19.1886 7.17748 20.9388 6.71664L21.6667 0.866638H30.3334L31.0612 6.71664C32.8115 7.17748 34.4911 7.87445 36.0535 8.78809L40.7076 5.16527L46.8347 11.2925L43.2119 15.9466C44.1256 17.5089 44.8225 19.1885 45.2834 20.9388L51.1334 21.6666Z" fill="#B6C48D"/>
<path d="M51.2408 20.8068L45.963 20.1475C45.5432 18.7159 44.9693 17.3342 44.2521 16.0266L47.5202 11.824C47.7885 11.4791 47.7581 10.9882 47.4492 10.6789L41.3211 4.55085C41.0118 4.2415 40.5205 4.21104 40.1752 4.47975L35.9726 7.74795C34.665 7.03109 33.2837 6.45726 31.8525 6.03704L31.1932 0.75918C31.1391 0.325423 30.7705 0 30.3333 0H21.6667C21.2295 0 20.8609 0.325423 20.8068 0.75918L20.1475 6.03704C18.7163 6.45726 17.3346 7.03109 16.0266 7.74795L11.824 4.47975C11.4791 4.21146 10.9882 4.24193 10.6789 4.55085L4.55085 10.6789C4.24193 10.9882 4.21146 11.4791 4.47975 11.824L7.74795 16.0266C7.03109 17.3346 6.45726 18.7163 6.03704 20.1475L0.75918 20.8068C0.325423 20.8609 0 21.2295 0 21.6667V30.3333C0 30.7705 0.325423 31.1391 0.75918 31.1932L6.03704 31.8525C6.45726 33.2837 7.03109 34.6654 7.74795 35.9734L4.47975 40.176C4.21146 40.5209 4.24193 41.0118 4.55085 41.3211L10.6789 47.4492C10.9882 47.7581 11.4791 47.7885 11.824 47.5202L16.0266 44.2521C17.3346 44.9689 18.7163 45.5427 20.1475 45.963L20.8068 51.2408C20.8609 51.6746 21.2295 52 21.6667 52H30.3333V50.2667H22.4318L21.7949 45.175C21.7513 44.8233 21.4978 44.5339 21.1555 44.4433C19.4839 44.0045 17.8801 43.3397 16.3888 42.4667C16.0828 42.2877 15.6986 42.3126 15.4189 42.5301L11.3636 45.682L6.31803 40.6364L9.47197 36.5811C9.68864 36.301 9.71318 35.9167 9.53333 35.6112C8.65947 34.1199 7.99381 32.5165 7.55456 30.8445C7.46442 30.5022 7.17497 30.2487 6.82331 30.2051L1.73333 29.5682V22.4318L6.825 21.7949C7.17666 21.7513 7.46611 21.4978 7.55667 21.1555C7.99551 19.4839 8.66032 17.8801 9.53333 16.3888C9.71234 16.0828 9.68737 15.6986 9.46986 15.4189L6.31803 11.3636L11.3636 6.31803L15.4189 9.47197C15.699 9.68864 16.0833 9.71318 16.3888 9.53333C17.8801 8.6599 19.4839 7.99424 21.1555 7.55456C21.4978 7.46442 21.7513 7.17497 21.7949 6.82331L22.4318 1.73333H29.5682L30.2051 6.825C30.2487 7.17708 30.5026 7.46654 30.8454 7.55667C32.5169 7.99551 34.1203 8.66032 35.6112 9.53333C35.9172 9.71234 36.3014 9.68737 36.5811 9.46986L40.6364 6.31803L45.6828 11.3636L42.528 15.4189C42.3114 15.699 42.2868 16.0833 42.4667 16.3888C43.341 17.8797 44.007 19.4835 44.4463 21.1555C44.5364 21.4978 44.8259 21.7513 45.1775 21.7949L50.2667 22.4318V30.3333H52V21.6667C52 21.2295 51.6746 20.8609 51.2408 20.8068Z" fill="#779426"/>
<path d="M25.1333 5.20001H26.8666V6.93335H25.1333V5.20001Z" fill="#779426"/>
<path d="M10.6797 11.9048L11.9052 10.6793L13.1307 11.9048L11.9052 13.1304L10.6797 11.9048Z" fill="#779426"/>
<path d="M5.19995 25.1334H6.93328V26.8667H5.19995V25.1334Z" fill="#779426"/>
<path d="M10.6797 40.0952L11.9052 38.8697L13.1307 40.0952L11.9052 41.3212L10.6797 40.0952Z" fill="#779426"/>
<path d="M45.0667 25.1334H46.8V26.8667H45.0667V25.1334Z" fill="#779426"/>
<path d="M38.8701 11.9057L40.0956 10.6797L41.3216 11.9053L40.0961 13.1312L38.8701 11.9057Z" fill="#779426"/>
<path d="M24.166 41.4934L24.3674 39.7723C17.1827 38.9192 11.8612 32.6858 12.1465 25.4562C12.4313 18.2267 18.2267 12.4313 25.4562 12.1465C32.6858 11.8612 38.9192 17.1827 39.7723 24.3674L41.4934 24.166C40.5357 16.0824 33.5228 10.094 25.3885 10.414C17.2546 10.7339 10.7339 17.2546 10.414 25.3885C10.094 33.5228 16.0824 40.5357 24.166 41.4934Z" fill="#779426"/>
<path d="M28.6 26C28.5953 24.9023 27.9017 23.9256 26.8667 23.5595V17.3333H25.1333V23.5595C24.3991 23.8215 23.8215 24.3991 23.5595 25.1333H19.0667V26.8666H23.5595C23.9797 28.0596 25.1989 28.7756 26.4456 28.5615C27.6923 28.3469 28.6025 27.2649 28.6 26ZM25.1333 26C25.1333 25.5214 25.5214 25.1333 26 25.1333C26.4786 25.1333 26.8667 25.5214 26.8667 26C26.8667 26.4786 26.4786 26.8666 26 26.8666C25.5214 26.8666 25.1333 26.4786 25.1333 26Z" fill="#779426"/>
<path d="M13.8667 25.1334H15.6V26.8667H13.8667V25.1334Z" fill="#779426"/>
<path d="M25.1333 13.8666H26.8666V15.6H25.1333V13.8666Z" fill="#779426"/>
<path d="M39 26C31.8204 26 26 31.8204 26 39C26 46.1796 31.8204 52 39 52C46.1796 52 52 46.1796 52 39C51.992 31.8238 46.1762 26.008 39 26ZM35.5333 49.7153V46.8H33.8V48.9849C33.1889 48.6632 32.6088 48.2858 32.0667 47.8584V46.8174C32.0692 45.6566 32.8377 44.6367 33.9523 44.3134L35.8368 43.7764L38.4799 45.7598C38.788 45.9913 39.212 45.9913 39.5201 45.7598L42.1624 43.7764L44.0477 44.3143C45.1623 44.6367 45.9308 45.6566 45.9333 46.8174V47.8626C45.3912 48.2904 44.8111 48.6675 44.2 48.9891V46.8H42.4667V49.7153C40.2141 50.4503 37.7859 50.4503 35.5333 49.7153ZM41.8945 34.1864L41.509 33.4136C41.3977 33.191 41.1967 33.0269 40.9559 32.963C40.7156 32.8999 40.46 32.9422 40.2522 33.0789L38.9628 33.9388C38.2514 34.414 37.4148 34.6671 36.5595 34.6667H35.5333C35.5266 32.7522 37.0733 31.1945 38.9877 31.1877C40.9026 31.181 42.4599 32.7277 42.4667 34.6425C42.2183 34.5825 42.0088 34.4153 41.8945 34.1864ZM36.5595 36.4C37.7571 36.4008 38.9281 36.0462 39.9238 35.381L40.3986 35.0645C40.6715 35.546 41.093 35.926 41.6 36.1478V37.2667C41.6 38.7025 40.4358 39.8667 39 39.8667C37.5642 39.8667 36.4 38.7025 36.4 37.2667V36.4H36.5595ZM39 41.6C39.2911 41.6004 39.5814 41.5712 39.8667 41.5132V42.4667C39.8696 42.7134 39.9784 42.947 40.1659 43.1082L39 43.9833L37.8341 43.1082C38.0216 42.947 38.1304 42.7134 38.1333 42.4667V41.5132C38.4186 41.5712 38.7089 41.6004 39 41.6ZM47.6188 46.2418C47.3899 44.5368 46.1767 43.1277 44.525 42.6469L41.6 41.8116V40.7109C42.6871 39.8993 43.3295 38.6234 43.3333 37.2667V36.4C43.8119 36.4 44.2 36.0119 44.2 35.5333V34.6667C44.2 31.795 41.8717 29.4667 39 29.4667C36.1283 29.4667 33.8 31.795 33.8 34.6667V35.5333C33.8 36.0119 34.1881 36.4 34.6667 36.4V37.2667C34.6705 38.6234 35.3129 39.8993 36.4 40.7109V41.8116L33.4758 42.6469C31.8238 43.1272 30.6105 44.5368 30.3812 46.2418C26.5345 41.6728 26.9217 34.896 31.2639 30.795C35.6061 26.694 42.3939 26.694 46.7361 30.795C51.0783 34.896 51.4655 41.6728 47.6188 46.2418Z" fill="#779426"/>
<path d="M28.6 38.1334H30.3333V39.8667H28.6V38.1334Z" fill="#779426"/>
<path d="M47.6666 38.1334H49.4V39.8667H47.6666V38.1334Z" fill="#779426"/>
</g>
<defs>
<clipPath id="clip0_34_929">
<rect width="52" height="52" fill="white"/>
</clipPath>
</defs>
</svg>
