<svg width="52" height="52" viewBox="0 0 52 52" fill="none" xmlns="http://www.w3.org/2000/svg">
<g clip-path="url(#clip0_34_931)">
<path d="M51.1333 7.73556V43.8347C51.1299 43.3799 50.9462 42.9446 50.6218 42.6229C50.2975 42.3013 49.8586 42.1191 49.3999 42.1157C48.9407 42.1171 48.5006 42.2986 48.1758 42.6207C47.851 42.9428 47.668 43.3792 47.6666 43.8347V42.9752C47.6695 42.5947 47.541 42.2247 47.3026 41.9266C47.5428 41.4519 47.6675 40.9279 47.6666 40.3967V4.29755C48.586 4.29755 49.4678 4.65976 50.1179 5.30452C50.768 5.94927 51.1333 6.82374 51.1333 7.73556Z" fill="#B6C48D"/>
<path d="M47.6667 4.29751V7.73553H0.866699V4.29751C0.866699 3.38569 1.23194 2.51122 1.88206 1.86647C2.53219 1.22172 3.41395 0.859497 4.33337 0.859497H44.2C45.1194 0.859497 46.0012 1.22172 46.6513 1.86647C47.3015 2.51122 47.6667 3.38569 47.6667 4.29751Z" fill="#B6C48D"/>
<path d="M37.2666 43.8347V47.2727L35.5333 44.2988C35.4325 44.1221 35.3004 43.9649 35.1433 43.8347H37.2666Z" fill="#B6C48D"/>
<path d="M33.8 31.8017V36.9587H31.2C31.2 36.5028 31.0174 36.0655 30.6923 35.7432C30.3672 35.4208 29.9263 35.2397 29.4666 35.2397C29.0069 35.2397 28.566 35.4208 28.241 35.7432C27.9159 36.0655 27.7333 36.5028 27.7333 36.9587H25.1333V28.3636H30.3333L33.8 31.8017Z" fill="#B6C48D"/>
<path d="M32.5347 46.0179L33.2627 47.2727H7.80004C6.88062 47.2727 5.99886 46.9105 5.34874 46.2658C4.69861 45.621 4.33337 44.7465 4.33337 43.8347H32.916C32.6031 44.0956 32.3932 44.4577 32.3234 44.8572C32.2536 45.2567 32.3285 45.6678 32.5347 46.0179Z" fill="#B6C48D"/>
<path d="M29.4666 38.6777C30.4239 38.6777 31.1999 37.9081 31.1999 36.9587C31.1999 36.0093 30.4239 35.2397 29.4666 35.2397C28.5093 35.2397 27.7333 36.0093 27.7333 36.9587C27.7333 37.9081 28.5093 38.6777 29.4666 38.6777Z" fill="#B6C48D"/>
<path d="M25.1333 28.3636V36.9587H19.0667C19.0667 36.5027 18.884 36.0655 18.559 35.7431C18.2339 35.4208 17.793 35.2396 17.3333 35.2396C16.8736 35.2396 16.4327 35.4208 16.1077 35.7431C15.7826 36.0655 15.6 36.5027 15.6 36.9587H13V24.9256H25.1333V28.3636Z" fill="#B6C48D"/>
<path d="M17.3333 38.6777C18.2906 38.6777 19.0666 37.9081 19.0666 36.9587C19.0666 36.0093 18.2906 35.2397 17.3333 35.2397C16.376 35.2397 15.6 36.0093 15.6 36.9587C15.6 37.9081 16.376 38.6777 17.3333 38.6777Z" fill="#B6C48D"/>
<path d="M12.1334 17.1901H14.7334V15.4711H12.1334V13.7521H15.6V12.0331H11.2667C11.0368 12.0331 10.8164 12.1236 10.6539 12.2848C10.4913 12.446 10.4 12.6646 10.4 12.8926V20.6281H12.1334V17.1901Z" fill="#779426"/>
<path d="M26 20.6281H30.3333V18.9091H26.8666V17.1901H29.4666V15.4711H26.8666V13.7521H30.3333V12.0331H26C25.7701 12.0331 25.5497 12.1236 25.3871 12.2848C25.2246 12.446 25.1333 12.6646 25.1333 12.8926V19.7686C25.1333 19.9966 25.2246 20.2152 25.3871 20.3764C25.5497 20.5376 25.7701 20.6281 26 20.6281Z" fill="#779426"/>
<path d="M32.0667 12.8926V19.7686C32.0667 19.9966 32.158 20.2152 32.3205 20.3764C32.483 20.5376 32.7035 20.6281 32.9333 20.6281H37.2667V18.9091H33.8V17.1901H36.4V15.4711H33.8V13.7521H37.2667V12.0331H32.9333C32.7035 12.0331 32.483 12.1236 32.3205 12.2848C32.158 12.446 32.0667 12.6646 32.0667 12.8926Z" fill="#779426"/>
<path d="M19.0667 19.7686V17.1901H20.8C21.0299 17.1901 21.2503 17.2806 21.4129 17.4418C21.5754 17.603 21.6667 17.8216 21.6667 18.0496V20.6281H23.4V18.0496C23.3978 17.4132 23.1568 16.8004 22.724 16.3306C23.0629 15.9621 23.2863 15.5038 23.3668 15.0115C23.4474 14.5192 23.3816 14.0143 23.1775 13.5585C22.9734 13.1027 22.6399 12.7157 22.2177 12.4448C21.7955 12.1739 21.3029 12.0308 20.8 12.033H18.2C17.9702 12.033 17.7497 12.1236 17.5872 12.2848C17.4247 12.446 17.3334 12.6646 17.3334 12.8925V20.6281H19.0667V19.7686ZM19.0667 13.7521H20.8C21.0299 13.7521 21.2503 13.8426 21.4129 14.0038C21.5754 14.165 21.6667 14.3836 21.6667 14.6116C21.6667 14.8395 21.5754 15.0581 21.4129 15.2193C21.2503 15.3805 21.0299 15.4711 20.8 15.4711H19.0667V13.7521Z" fill="#779426"/>
<path d="M6.93335 34.3802H10.4V36.0992H6.93335V34.3802Z" fill="#779426"/>
<path d="M5.19995 30.0826H10.4V31.8016H5.19995V30.0826Z" fill="#779426"/>
<path d="M3.46667 25.7851H10.4V27.5041H3.46667V25.7851Z" fill="#779426"/>
<path d="M48.4553 3.51537C48.2712 2.52899 47.745 1.63756 46.9678 0.995519C46.1907 0.353483 45.2115 0.00130276 44.2 0H4.33333C3.18406 0 2.08186 0.452773 1.2692 1.25871C0.456546 2.06466 0 3.15775 0 4.29752V40.3967C0.00131361 41.3998 0.356429 42.3709 1.00382 43.1417C1.6512 43.9124 2.55007 44.4343 3.54467 44.6169C3.72876 45.6032 4.25498 46.4947 5.03216 47.1367C5.80934 47.7787 6.78851 48.1309 7.8 48.1322H32.76L35.0133 52L36.5127 51.1405L33.28 45.5881C33.1666 45.3894 33.1367 45.1545 33.1967 44.9341C33.2567 44.7137 33.4018 44.5256 33.6007 44.4106C33.6989 44.3539 33.8075 44.3172 33.9202 44.3026C34.0329 44.2879 34.1474 44.2956 34.257 44.3252C34.3667 44.3548 34.4693 44.4057 34.559 44.4749C34.6487 44.5442 34.7236 44.6304 34.7793 44.7286L36.5127 47.7025C36.6101 47.8656 36.7581 47.9931 36.9346 48.0659C37.1111 48.1387 37.3067 48.1529 37.492 48.1064C37.6767 48.0571 37.8397 47.9486 37.9557 47.7978C38.0717 47.647 38.1342 47.4624 38.1333 47.2727V36.9587C38.1333 36.7307 38.2246 36.5121 38.3872 36.3509C38.5497 36.1897 38.7701 36.0992 39 36.0992C39.2299 36.0992 39.4503 36.1897 39.6128 36.3509C39.7754 36.5121 39.8667 36.7307 39.8667 36.9587V44.6942C39.8667 44.9222 39.958 45.1408 40.1205 45.302C40.283 45.4632 40.5035 45.5537 40.7333 45.5537C40.9632 45.5537 41.1836 45.4632 41.3462 45.302C41.5087 45.1408 41.6 44.9222 41.6 44.6942V42.1157C41.615 41.8927 41.7112 41.6826 41.8706 41.5245C42.0299 41.3664 42.2418 41.2711 42.4667 41.2562C42.6965 41.2562 42.917 41.3468 43.0795 41.5079C43.242 41.6691 43.3333 41.8877 43.3333 42.1157V44.6942C43.3333 44.9222 43.4246 45.1408 43.5872 45.302C43.7497 45.4632 43.9701 45.5537 44.2 45.5537C44.4299 45.5537 44.6503 45.4632 44.8128 45.302C44.9754 45.1408 45.0667 44.9222 45.0667 44.6942V42.9752C45.0667 42.7472 45.158 42.5286 45.3205 42.3674C45.483 42.2063 45.7035 42.1157 45.9333 42.1157C46.1632 42.1157 46.3836 42.2063 46.5462 42.3674C46.7087 42.5286 46.8 42.7472 46.8 42.9752V45.5537C46.8 45.7817 46.8913 46.0003 47.0538 46.1615C47.2164 46.3227 47.4368 46.4132 47.6667 46.4132C47.8965 46.4132 48.117 46.3227 48.2795 46.1615C48.442 46.0003 48.5333 45.7817 48.5333 45.5537V43.8347C48.5333 43.6068 48.6246 43.3881 48.7872 43.2269C48.9497 43.0658 49.1701 42.9752 49.4 42.9752C49.6299 42.9752 49.8503 43.0658 50.0128 43.2269C50.1754 43.3881 50.2667 43.6068 50.2667 43.8347V51.5702H52V7.73554C51.9987 6.7324 51.6436 5.76133 50.9962 4.99057C50.3488 4.21982 49.4499 3.69794 48.4553 3.51537ZM7.8 46.4132C7.26388 46.4105 6.74163 46.244 6.30433 45.9364C5.86702 45.6288 5.53589 45.1951 5.356 44.6942H31.486C31.3747 45.2818 31.4727 45.8894 31.7633 46.4132H7.8ZM46.8 40.3967C46.8 40.4483 46.7827 40.4998 46.7827 40.56C46.5112 40.4572 46.2238 40.4019 45.9333 40.3967C45.4863 40.3954 45.0469 40.5111 44.6593 40.7319C44.4246 40.366 44.1007 40.0646 43.7174 39.8558C43.3342 39.647 42.904 39.5374 42.4667 39.5372C42.1702 39.539 41.8765 39.5944 41.6 39.7005V36.9587C41.6 36.2748 41.3261 35.619 40.8385 35.1354C40.3509 34.6518 39.6896 34.3802 39 34.3802C38.3104 34.3802 37.6491 34.6518 37.1615 35.1354C36.6739 35.619 36.4 36.2748 36.4 36.9587V42.9752H35.3947C34.9973 42.7288 34.54 42.5939 34.0715 42.5848C33.603 42.5757 33.1407 42.6928 32.734 42.9236L32.656 42.9752H4.33333C3.6444 42.9732 2.98428 42.7008 2.49713 42.2177C2.00998 41.7346 1.73539 41.0799 1.73333 40.3967V8.59504H46.8V40.3967ZM46.8 6.87603H1.73333V4.29752C1.73539 3.61428 2.00998 2.95961 2.49713 2.47649C2.98428 1.99337 3.6444 1.72105 4.33333 1.71901H44.2C44.8889 1.72105 45.5491 1.99337 46.0362 2.47649C46.5234 2.95961 46.7979 3.61428 46.8 4.29752V6.87603ZM50.2667 41.4109C49.9643 41.2981 49.6422 41.246 49.3194 41.2578C48.9965 41.2696 48.6792 41.3451 48.386 41.4797C48.4829 41.1267 48.5324 40.7625 48.5333 40.3967V5.31174C49.0384 5.49014 49.4757 5.81853 49.7859 6.25222C50.096 6.68592 50.2639 7.20385 50.2667 7.73554V41.4109Z" fill="#779426"/>
<path d="M34.4153 31.1914L30.9486 27.7534C30.7834 27.5951 30.5631 27.5058 30.3333 27.5041H26V24.9256C26 24.6977 25.9087 24.479 25.7461 24.3178C25.5836 24.1567 25.3632 24.0661 25.1333 24.0661H13C12.7701 24.0661 12.5497 24.1567 12.3871 24.3178C12.2246 24.479 12.1333 24.6977 12.1333 24.9256V36.9587C12.1333 37.1866 12.2246 37.4052 12.3871 37.5664C12.5497 37.7276 12.7701 37.8182 13 37.8182H14.8893C15.0668 38.3206 15.3973 38.7559 15.8351 39.0639C16.273 39.3719 16.7965 39.5373 17.3333 39.5373C17.8701 39.5373 18.3936 39.3719 18.8315 39.0639C19.2693 38.7559 19.5998 38.3206 19.7773 37.8182H27.0226C27.2001 38.3206 27.5306 38.7559 27.9685 39.0639C28.4063 39.3719 28.9298 39.5373 29.4666 39.5373C30.0034 39.5373 30.527 39.3719 30.9648 39.0639C31.4027 38.7559 31.7332 38.3206 31.9106 37.8182H33.8C34.0298 37.8182 34.2503 37.7276 34.4128 37.5664C34.5753 37.4052 34.6666 37.1866 34.6666 36.9587V31.8016C34.6649 31.5738 34.5749 31.3553 34.4153 31.1914ZM17.3333 37.8182C17.1619 37.8182 16.9943 37.7678 16.8518 37.6733C16.7093 37.5789 16.5982 37.4446 16.5326 37.2876C16.467 37.1305 16.4498 36.9577 16.4833 36.791C16.5167 36.6243 16.5993 36.4711 16.7205 36.3509C16.8417 36.2307 16.9961 36.1488 17.1642 36.1157C17.3323 36.0825 17.5066 36.0995 17.665 36.1646C17.8233 36.2296 17.9587 36.3398 18.0539 36.4811C18.1491 36.6225 18.2 36.7887 18.2 36.9587C18.2 37.1866 18.1087 37.4052 17.9461 37.5664C17.7836 37.7276 17.5632 37.8182 17.3333 37.8182ZM24.2666 36.0992H19.7773C19.5998 35.5967 19.2693 35.1614 18.8315 34.8534C18.3936 34.5454 17.8701 34.38 17.3333 34.38C16.7965 34.38 16.273 34.5454 15.8351 34.8534C15.3973 35.1614 15.0668 35.5967 14.8893 36.0992H13.8666V25.7851H24.2666V36.0992ZM29.4666 37.8182C29.2952 37.8182 29.1277 37.7678 28.9851 37.6733C28.8426 37.5789 28.7315 37.4446 28.6659 37.2876C28.6003 37.1305 28.5832 36.9577 28.6166 36.791C28.6501 36.6243 28.7326 36.4711 28.8538 36.3509C28.975 36.2307 29.1294 36.1488 29.2976 36.1157C29.4657 36.0825 29.6399 36.0995 29.7983 36.1646C29.9567 36.2296 30.092 36.3398 30.1872 36.4811C30.2825 36.6225 30.3333 36.7887 30.3333 36.9587C30.3333 37.1866 30.242 37.4052 30.0795 37.5664C29.9169 37.7276 29.6965 37.8182 29.4666 37.8182ZM32.9333 36.0992H31.9106C31.7332 35.5967 31.4027 35.1614 30.9648 34.8534C30.527 34.5454 30.0034 34.38 29.4666 34.38C28.9298 34.38 28.4063 34.5454 27.9685 34.8534C27.5306 35.1614 27.2001 35.5967 27.0226 36.0992H26V29.2231H29.978L32.9333 32.154V36.0992Z" fill="#779426"/>
<path d="M3.46667 3.43799H5.20001V5.157H3.46667V3.43799Z" fill="#779426"/>
<path d="M6.93335 3.43799H8.66668V5.157H6.93335V3.43799Z" fill="#779426"/>
<path d="M10.4 3.43799H12.1334V5.157H10.4V3.43799Z" fill="#779426"/>
</g>
<defs>
<clipPath id="clip0_34_931">
<rect width="52" height="52" fill="white"/>
</clipPath>
</defs>
</svg>
