<svg width="52" height="52" viewBox="0 0 52 52" fill="none" xmlns="http://www.w3.org/2000/svg">
<g clip-path="url(#clip0_34_934)">
<path d="M36.9455 45.2823L45.2996 36.7713L45.9816 36.0765C46.0594 35.9941 46.1527 35.9285 46.256 35.8837C46.3592 35.8389 46.4703 35.8158 46.5826 35.8158C46.6948 35.8158 46.8059 35.8389 46.9092 35.8837C47.0124 35.9285 47.1058 35.9941 47.1836 36.0765L50.798 39.7588C50.9568 39.9215 51.0459 40.1417 51.0459 40.3711C51.0459 40.6005 50.9568 40.8207 50.798 40.9834L41.1567 50.8145C40.9957 50.9772 40.7782 51.0685 40.5514 51.0685C40.3247 51.0685 40.1071 50.9772 39.9462 50.8145L36.3317 47.1235C36.173 46.9608 36.0839 46.7407 36.0839 46.5112C36.0839 46.2818 36.173 46.0617 36.3317 45.8989L36.9455 45.2823Z" fill="#B6C48D"/>
<path d="M15.063 45.2823L15.6682 45.8989C15.827 46.0617 15.9161 46.2818 15.9161 46.5112C15.9161 46.7407 15.827 46.9608 15.6682 47.1235L12.0538 50.8145C11.8928 50.9772 11.6753 51.0685 11.4485 51.0685C11.2218 51.0685 11.0043 50.9772 10.8433 50.8145L1.20199 40.9834C1.04322 40.8206 0.954102 40.6005 0.954102 40.3711C0.954102 40.1417 1.04322 39.9215 1.20199 39.7588L4.81642 36.0765C4.89466 35.9935 4.98867 35.9276 5.09272 35.8828C5.19678 35.838 5.3087 35.8152 5.42166 35.8159C5.53311 35.8169 5.64325 35.8405 5.74568 35.8852C5.84812 35.9299 5.94082 35.9949 6.01838 36.0765L6.70035 36.7713L15.0545 45.2823H15.063Z" fill="#B6C48D"/>
<path d="M19.1803 6.31381V1.73695C19.1803 1.50661 19.2701 1.28571 19.43 1.12284C19.5898 0.959969 19.8067 0.868469 20.0328 0.868469H33.6721C33.8982 0.868469 34.115 0.959969 34.2749 1.12284C34.4347 1.28571 34.5246 1.50661 34.5246 1.73695V6.9478C34.5246 7.17814 34.4347 7.39904 34.2749 7.56191C34.115 7.72478 33.8982 7.81628 33.6721 7.81628H20.0328C19.8067 7.81628 19.5898 7.72478 19.43 7.56191C19.2701 7.39904 19.1803 7.17814 19.1803 6.9478V6.31381Z" fill="#B6C48D"/>
<path d="M21.7377 3.47388H23.4426V5.21083H21.7377V3.47388Z" fill="#779426"/>
<path d="M4.20837 40.3676L5.41393 39.1394L6.61949 40.3676L5.41393 41.5958L4.20837 40.3676Z" fill="#779426"/>
<path d="M51.4033 39.1422L47.7888 35.4599C47.4647 35.1422 47.0324 34.9647 46.5826 34.9647C46.1328 34.9647 45.7005 35.1422 45.3764 35.4599L45.2997 35.538L43.2964 33.4971C43.2166 33.4202 43.1534 33.3272 43.1108 33.224C43.0683 33.1208 43.0473 33.0098 43.0492 32.8979V29.424C43.05 29.0805 42.9841 28.7402 42.8554 28.4227C42.7267 28.1053 42.5376 27.8169 42.299 27.5741L39.1875 24.4042C38.6957 23.9096 38.0683 23.5785 37.3881 23.4545C36.7079 23.3305 36.0067 23.4193 35.377 23.7094V12.8795C35.3779 12.536 35.312 12.1957 35.1833 11.8783C35.0545 11.5608 34.8654 11.2724 34.6269 11.0296L33.9279 10.3175C33.8473 10.2371 33.7832 10.1411 33.7393 10.0353C33.6954 9.92945 33.6726 9.81578 33.6721 9.70088V8.68476C34.1239 8.68339 34.5567 8.49994 34.8762 8.1745C35.1956 7.84906 35.3757 7.40805 35.377 6.94781V1.73695C35.3757 1.27671 35.1956 0.835704 34.8762 0.51026C34.5567 0.184816 34.1239 0.00137456 33.6721 0H20.0328C19.581 0.00137456 19.1481 0.184816 18.8287 0.51026C18.5093 0.835704 18.3292 1.27671 18.3279 1.73695V6.94781C18.3292 7.40805 18.5093 7.84906 18.8287 8.1745C19.1481 8.49994 19.581 8.68339 20.0328 8.68476V11.4378C20.0323 11.5527 20.0095 11.6664 19.9656 11.7722C19.9217 11.8781 19.8576 11.974 19.777 12.0544L17.3731 14.5036C17.1345 14.7463 16.9455 15.0347 16.8167 15.3522C16.688 15.6696 16.6221 16.0099 16.6229 16.3534V20.8434C16.6263 21.4133 16.7673 21.9737 17.0334 22.475C17.2995 22.9763 17.6826 23.4032 18.1488 23.7181L17.5521 24.326C16.9038 23.7157 16.0495 23.3833 15.1669 23.3979C14.2843 23.4124 13.4411 23.7728 12.8124 24.4042L9.70097 27.5741C9.46241 27.8169 9.27332 28.1053 9.14458 28.4227C9.01583 28.7402 8.94998 29.0805 8.95081 29.424V32.8979C8.95228 33.0118 8.93027 33.1248 8.88622 33.2295C8.84217 33.3342 8.77705 33.4283 8.69507 33.5058L6.70032 35.538L6.6236 35.4599C6.29945 35.1422 5.86715 34.9647 5.41737 34.9647C4.96758 34.9647 4.53528 35.1422 4.21114 35.4599L0.596709 39.1422C0.438192 39.3035 0.312439 39.4951 0.22664 39.706C0.140842 39.9168 0.0966797 40.1428 0.0966797 40.3711C0.0966797 40.5994 0.140842 40.8254 0.22664 41.0363C0.312439 41.2471 0.438192 41.4387 0.596709 41.6L10.238 51.4225C10.3959 51.5848 10.5838 51.7136 10.7908 51.8016C10.9979 51.8895 11.2199 51.9348 11.4443 51.9348C11.6686 51.9348 11.8906 51.8895 12.0977 51.8016C12.3047 51.7136 12.4926 51.5848 12.6505 51.4225L16.2649 47.7401C16.4242 47.5793 16.5507 47.3879 16.637 47.1769C16.7233 46.966 16.7678 46.7398 16.7678 46.5112C16.7678 46.2827 16.7233 46.0565 16.637 45.8455C16.5507 45.6346 16.4242 45.4432 16.2649 45.2823L16.9895 44.5441C17.065 44.4629 17.1563 44.3985 17.2576 44.3551C17.3588 44.3118 17.4679 44.2904 17.5777 44.2923H18.5751C18.9122 44.2931 19.2462 44.226 19.5578 44.0949C19.8695 43.9637 20.1525 43.7711 20.3908 43.528L26 37.8048L31.6092 43.528C31.8474 43.7711 32.1305 43.9637 32.4421 44.0949C32.7537 44.226 33.0877 44.2931 33.4249 44.2923H34.4223C34.5341 44.2908 34.645 44.3132 34.7478 44.3581C34.8506 44.403 34.943 44.4693 35.019 44.5528L35.7351 45.2823C35.5757 45.4432 35.4493 45.6346 35.3629 45.8455C35.2766 46.0565 35.2322 46.2827 35.2322 46.5112C35.2322 46.7398 35.2766 46.966 35.3629 47.1769C35.4493 47.3879 35.5757 47.5793 35.7351 47.7401L39.3495 51.4225C39.5074 51.5848 39.6953 51.7136 39.9023 51.8016C40.1093 51.8895 40.3314 51.9348 40.5557 51.9348C40.78 51.9348 41.0021 51.8895 41.2092 51.8016C41.4162 51.7136 41.6041 51.5848 41.762 51.4225L51.4033 41.6C51.5618 41.4387 51.6875 41.2471 51.7733 41.0363C51.8591 40.8254 51.9033 40.5994 51.9033 40.3711C51.9033 40.1428 51.8591 39.9168 51.7733 39.706C51.6875 39.4951 51.5618 39.3035 51.4033 39.1422ZM20.0328 1.73695H33.6721V6.94781H20.0328V1.73695ZM18.3279 16.3534C18.3283 16.2385 18.3512 16.1248 18.3951 16.019C18.439 15.9131 18.503 15.8172 18.5836 15.7368L20.9875 13.2877C21.2261 13.0449 21.4152 12.7565 21.5439 12.4391C21.6727 12.1216 21.7385 11.7813 21.7377 11.4378V8.68476H31.9672V9.70088C31.9664 10.0444 32.0322 10.3846 32.161 10.7021C32.2897 11.0196 32.4788 11.308 32.7174 11.5507L33.4164 12.2629C33.4969 12.3433 33.561 12.4392 33.6049 12.5451C33.6488 12.6509 33.6716 12.7646 33.6721 12.8795V23.5357L29.1029 18.872C28.6928 18.4804 28.1709 18.2322 27.6129 18.1635C27.0548 18.0947 26.4899 18.2091 26 18.4899C25.5101 18.2091 24.9451 18.0947 24.3871 18.1635C23.8291 18.2322 23.3071 18.4804 22.897 18.872L21.7377 20.0618V18.238H20.0328V21.7987L19.3934 22.4501C19.0799 22.3194 18.8115 22.0971 18.6218 21.8112C18.4322 21.5252 18.3299 21.1885 18.3279 20.8434V16.3534ZM11.4485 50.1979L1.79868 40.3668L5.42163 36.6844L15.0629 46.5156L11.4485 50.1979ZM19.1803 42.2948C19.1014 42.3768 19.0072 42.4421 18.9033 42.4869C18.7994 42.5316 18.6879 42.5548 18.5751 42.5553H17.5777C16.9001 42.558 16.2508 42.8326 15.7705 43.3196L15.0544 44.0491L7.91081 36.7713L9.89704 34.7477C10.3796 34.2573 10.6523 33.5923 10.6557 32.8979V29.424C10.6562 29.3091 10.679 29.1954 10.7229 29.0895C10.7668 28.9837 10.8309 28.8878 10.9115 28.8073L14.0229 25.6374C14.3278 25.3276 14.7368 25.1472 15.1672 25.1327C15.5976 25.1182 16.0173 25.2706 16.3416 25.5592L13.2557 28.7031L14.4662 29.9364L21.32 22.9451C21.3631 23.0461 21.4115 23.1447 21.4649 23.2404C21.1649 23.367 20.8925 23.5529 20.6636 23.7876C20.2684 24.1909 20.0143 24.7154 19.9403 25.2804C19.8664 25.8453 19.9768 26.4193 20.2544 26.9141C19.957 27.0417 19.6854 27.2243 19.4531 27.4525C18.9741 27.9428 18.7052 28.6063 18.7052 29.298C18.7052 29.9898 18.9741 30.6533 19.4531 31.1436L24.798 36.5802L19.1803 42.2948ZM34.4223 42.5553H33.4249C33.3121 42.5548 33.2006 42.5316 33.0967 42.4869C32.9928 42.4421 32.8986 42.3768 32.8197 42.2948L20.6636 29.9103C20.5048 29.7476 20.4157 29.5275 20.4157 29.298C20.4157 29.0686 20.5048 28.8485 20.6636 28.6858C20.8116 28.5421 21.0042 28.4556 21.2081 28.4414C21.412 28.4271 21.6144 28.4859 21.7803 28.6076L29.1029 36.0765L30.3049 34.8433L30.2964 34.8346L30.3049 34.8259L21.8656 26.2453C21.705 26.083 21.6144 25.8623 21.6136 25.6318C21.6128 25.4013 21.7019 25.18 21.8613 25.0165C22.0207 24.8529 22.2373 24.7606 22.4635 24.7598C22.6897 24.759 22.907 24.8497 23.0675 25.0121L31.5069 33.6187H31.5154L32.7174 32.3855L24.278 23.7876C24.2695 23.7876 24.2695 23.7789 24.261 23.7789L23.0761 22.5717C22.9951 22.4916 22.9308 22.3957 22.8868 22.2898C22.8429 22.1839 22.8203 22.0701 22.8203 21.9551C22.8203 21.8401 22.8429 21.7263 22.8868 21.6204C22.9308 21.5144 22.9951 21.4186 23.0761 21.3385C23.1867 21.2123 23.3337 21.125 23.496 21.0891C23.6583 21.0532 23.8276 21.0706 23.9797 21.1387C24.0938 21.1791 24.1963 21.2478 24.278 21.3385L25.48 22.563L33.9193 31.1609L35.1213 29.919L26.6905 21.3298C26.5343 21.1656 26.447 20.9461 26.447 20.7175C26.447 20.4889 26.5343 20.2693 26.6905 20.1052C26.7693 20.0236 26.8636 19.9592 26.9677 19.9159C27.0717 19.8726 27.1833 19.8513 27.2957 19.8534C27.4068 19.8514 27.5171 19.8728 27.6198 19.9161C27.7224 19.9595 27.8152 20.0238 27.8924 20.1052L37.5338 29.9364L38.7443 28.7031L35.6584 25.5592C35.9827 25.2706 36.4024 25.1182 36.8328 25.1327C37.2632 25.1472 37.6722 25.3276 37.977 25.6374L41.0885 28.8073C41.1691 28.8878 41.2331 28.9837 41.277 29.0895C41.3209 29.1954 41.3438 29.3091 41.3442 29.424V32.8979C41.3469 33.5882 41.6164 34.2497 42.0944 34.739L44.0892 36.7713L36.9456 44.0491L36.238 43.3283C35.7566 42.8366 35.1039 42.5588 34.4223 42.5553ZM40.5515 50.1979L36.937 46.5156L46.5784 36.6844L50.2013 40.3668L40.5515 50.1979Z" fill="#779426"/>
<path d="M45.3662 40.3718L46.5718 39.1436L47.7773 40.3718L46.5718 41.6L45.3662 40.3718Z" fill="#779426"/>
<path d="M25.1476 46.8977H26.8525V48.6347H25.1476V46.8977Z" fill="#779426"/>
<path d="M28.3823 46.7854L30.0661 46.5128L30.3337 48.2282L28.6499 48.5008L28.3823 46.7854Z" fill="#779426"/>
<path d="M31.5071 46.1447L33.1285 45.608L33.6553 47.2598L32.0339 47.7966L31.5071 46.1447Z" fill="#779426"/>
<path d="M45.1899 33.3226L45.7168 31.6707L47.3381 32.2074L46.8113 33.8593L45.1899 33.3226Z" fill="#779426"/>
<path d="M46.0973 30.1642L46.3649 28.4488L48.0486 28.7213L47.7811 30.4368L46.0973 30.1642Z" fill="#779426"/>
<path d="M46.459 25.1858H48.1639V26.9227H46.459V25.1858Z" fill="#779426"/>
<path d="M46.0973 21.931L47.7811 21.6584L48.0486 23.3739L46.3649 23.6465L46.0973 21.931Z" fill="#779426"/>
<path d="M45.1906 18.7892L46.8119 18.2525L47.3387 19.9044L45.7174 20.4411L45.1906 18.7892Z" fill="#779426"/>
<path d="M43.842 15.8196L45.3611 15.031L46.1352 16.5786L44.6161 17.3672L43.842 15.8196Z" fill="#779426"/>
<path d="M42.0535 13.0934L43.4326 12.0722L44.435 13.4772L43.0558 14.4984L42.0535 13.0934Z" fill="#779426"/>
<path d="M39.8584 10.7042L41.064 9.47601L42.2695 10.7042L41.064 11.9324L39.8584 10.7042Z" fill="#779426"/>
<path d="M37.3446 8.685L38.347 7.27996L39.7261 8.30117L38.7237 9.70621L37.3446 8.685Z" fill="#779426"/>
<path d="M15.1782 6.3302L16.6973 5.54162L17.4713 7.08925L15.9523 7.87782L15.1782 6.3302Z" fill="#779426"/>
<path d="M12.285 8.29486L13.6642 7.27365L14.6665 8.67868L13.2874 9.6999L12.285 8.29486Z" fill="#779426"/>
<path d="M9.72253 10.7014L10.9281 9.47314L12.1337 10.7014L10.9281 11.9296L9.72253 10.7014Z" fill="#779426"/>
<path d="M7.56934 13.486L8.57171 12.081L9.95084 13.1022L8.94846 14.5072L7.56934 13.486Z" fill="#779426"/>
<path d="M5.86426 16.5759L6.63829 15.0282L8.15737 15.8168L7.38334 17.3644L5.86426 16.5759Z" fill="#779426"/>
<path d="M4.65674 19.902L5.18356 18.2501L6.80493 18.7869L6.27812 20.4387L4.65674 19.902Z" fill="#779426"/>
<path d="M3.98547 23.3843L4.25304 21.6688L5.93683 21.9414L5.66927 23.6569L3.98547 23.3843Z" fill="#779426"/>
<path d="M3.83606 25.1858H5.54098V26.9227H3.83606V25.1858Z" fill="#779426"/>
<path d="M3.99146 28.7359L5.67525 28.4633L5.94281 30.1787L4.25902 30.4513L3.99146 28.7359Z" fill="#779426"/>
<path d="M4.65356 32.2059L6.27494 31.6692L6.80176 33.3211L5.18038 33.8578L4.65356 32.2059Z" fill="#779426"/>
<path d="M18.3363 47.2557L18.8631 45.6039L20.4845 46.1406L19.9577 47.7925L18.3363 47.2557Z" fill="#779426"/>
<path d="M21.7169 48.2366L21.9845 46.5212L23.6683 46.7938L23.4007 48.5092L21.7169 48.2366Z" fill="#779426"/>
</g>
<defs>
<clipPath id="clip0_34_934">
<rect width="52" height="52" fill="white"/>
</clipPath>
</defs>
</svg>
