<svg width="52" height="52" viewBox="0 0 52 52" fill="none" xmlns="http://www.w3.org/2000/svg">
<path fill-rule="evenodd" clip-rule="evenodd" d="M24.546 6.06666C21.946 6.5 21.3197 2.65607 21.3197 2.65607L7.64598 3.03333L6.93335 25.6228C6.93513 31.7083 6.94449 38.6529 7.36668 42.9561C7.61168 45.4532 7.74733 47.368 7.81804 48.3662C7.86918 49.0881 7.88634 49.3305 7.88634 48.9667L29.0333 49.4C29.6304 49.3818 29.9 34.2333 23.0531 32.5C23.0531 27.6132 22.0225 26.9903 21.1317 26.4518C20.6076 26.1351 20.1318 25.8475 19.9427 24.7379C19.9427 24.7379 19.8041 17.7667 25.5667 17.7667C30.3334 17.7667 30.4064 6.33782 24.546 6.06666ZM26 46.8C26.9573 46.8 27.7334 46.024 27.7334 45.0667C27.7334 44.1094 26.9573 43.3333 26 43.3333C25.0427 43.3333 24.2667 44.1094 24.2667 45.0667C24.2667 46.024 25.0427 46.8 26 46.8Z" fill="#B6C48D"/>
<path fill-rule="evenodd" clip-rule="evenodd" d="M27.3008 6.06666C29.9008 6.5 30.5271 2.65607 30.5271 2.65607L44.2008 3.03333L44.9135 25.6228C44.9117 31.7083 44.9023 38.6529 44.4801 42.9561C44.2351 45.4532 44.0995 47.368 44.0288 48.3662C43.9776 49.0881 43.9605 49.3305 43.9605 48.9667L22.8135 49.4C22.2164 49.3818 21.9468 34.2333 28.7937 32.5C28.7937 27.6132 29.8243 26.9903 30.7151 26.4518C31.2392 26.1351 31.715 25.8475 31.9041 24.7379C31.9041 24.7379 32.0427 17.7667 26.2801 17.7667C21.5135 17.7667 21.4404 6.33782 27.3008 6.06666ZM25.8468 46.8C24.8895 46.8 24.1135 46.024 24.1135 45.0667C24.1135 44.1094 24.8895 43.3333 25.8468 43.3333C26.8041 43.3333 27.5801 44.1094 27.5801 45.0667C27.5801 46.024 26.8041 46.8 25.8468 46.8Z" fill="#B6C48D"/>
<path d="M28.4375 31.6875V34.125C28.4375 34.3405 28.3519 34.5472 28.1995 34.6995C28.0472 34.8519 27.8405 34.9375 27.625 34.9375H24.375C24.1595 34.9375 23.9528 34.8519 23.8005 34.6995C23.6481 34.5472 23.5625 34.3405 23.5625 34.125V31.6875H28.4375Z" fill="#FFFCF9"/>
<path d="M41.4375 1.625H10.5625C9.48545 1.62629 8.45289 2.05472 7.6913 2.8163C6.92972 3.57789 6.50129 4.61045 6.5 5.6875V46.3125C6.50129 47.3895 6.92972 48.4221 7.6913 49.1837C8.45289 49.9453 9.48545 50.3737 10.5625 50.375H41.4375C42.5145 50.3737 43.5471 49.9453 44.3087 49.1837C45.0703 48.4221 45.4987 47.3895 45.5 46.3125V5.6875C45.4987 4.61045 45.0703 3.57789 44.3087 2.8163C43.5471 2.05472 42.5145 1.62629 41.4375 1.625ZM22.75 3.25H29.25V4.0625C29.25 4.27799 29.1644 4.48465 29.012 4.63702C28.8597 4.7894 28.653 4.875 28.4375 4.875H23.5625C23.347 4.875 23.1403 4.7894 22.988 4.63702C22.8356 4.48465 22.75 4.27799 22.75 4.0625V3.25ZM43.875 46.3125C43.875 46.959 43.6182 47.579 43.1611 48.0361C42.704 48.4932 42.084 48.75 41.4375 48.75H10.5625C9.91603 48.75 9.29605 48.4932 8.83893 48.0361C8.38181 47.579 8.125 46.959 8.125 46.3125V5.6875C8.125 5.04103 8.38181 4.42105 8.83893 3.96393C9.29605 3.50681 9.91603 3.25 10.5625 3.25H21.125V4.0625C21.125 4.70897 21.3818 5.32895 21.8389 5.78607C22.296 6.24319 22.916 6.5 23.5625 6.5H28.4375C29.084 6.5 29.704 6.24319 30.1611 5.78607C30.6182 5.32895 30.875 4.70897 30.875 4.0625V3.25H41.4375C42.084 3.25 42.704 3.50681 43.1611 3.96393C43.6182 4.42105 43.875 5.04103 43.875 5.6875V46.3125Z" fill="#779426"/>
<path d="M32.5 23.5625C32.5001 22.6996 32.3284 21.8452 31.9949 21.0493C31.6613 20.2534 31.1727 19.5319 30.5573 18.9268C29.942 18.3218 29.2123 17.8453 28.4109 17.5252C27.6095 17.2051 26.7524 17.0479 25.8895 17.0625C24.2325 17.1082 22.654 17.7782 21.47 18.9383C20.2861 20.0984 19.5842 21.6631 19.5049 23.3188C19.4731 24.2201 19.629 25.1181 19.9627 25.9559C20.2965 26.7938 20.8007 27.5531 21.4435 28.1856C22.1824 28.8965 22.6359 29.853 22.7183 30.875H21.125V32.5H22.75V34.125C22.75 34.556 22.9212 34.9693 23.226 35.2741C23.5307 35.5788 23.944 35.75 24.375 35.75H27.625C28.056 35.75 28.4693 35.5788 28.7741 35.2741C29.0788 34.9693 29.25 34.556 29.25 34.125V32.5H30.875V30.875H29.2801C29.3485 29.8798 29.7826 28.945 30.4988 28.2506C31.134 27.6466 31.6392 26.9193 31.9833 26.1131C32.3274 25.307 32.5032 24.439 32.5 23.5625ZM24.375 34.125V32.5H27.625V34.125H24.375ZM27.6331 30.875H24.3669C24.2757 29.4147 23.6374 28.0425 22.5794 27.0319C22.0941 26.5599 21.7138 25.9909 21.4632 25.362C21.2126 24.7332 21.0974 24.0585 21.125 23.3821C21.1839 22.139 21.7108 20.9642 22.5999 20.0934C23.4891 19.2226 24.6747 18.7204 25.9188 18.6875C26.8985 18.6697 27.8609 18.948 28.68 19.4859C29.4991 20.0238 30.1368 20.7963 30.5098 21.7024C30.8829 22.6086 30.9738 23.6062 30.7708 24.5649C30.5678 25.5235 30.0802 26.3986 29.3719 27.0758C28.3313 28.0757 27.7097 29.4339 27.6331 30.875Z" fill="#779426"/>
<path d="M26 24.375C25.7845 24.375 25.5778 24.2894 25.4255 24.137C25.2731 23.9847 25.1875 23.778 25.1875 23.5625H23.5625C23.5646 24.0648 23.7218 24.5543 24.0127 24.9638C24.3036 25.3734 24.7139 25.6831 25.1875 25.8505V29.25H26.8125V25.8505C27.2861 25.6831 27.6964 25.3734 27.9873 24.9638C28.2782 24.5543 28.4354 24.0648 28.4375 23.5625H26.8125C26.8125 23.778 26.7269 23.9847 26.5745 24.137C26.4222 24.2894 26.2155 24.375 26 24.375Z" fill="#779426"/>
<path d="M25.1875 13.8125H26.8125V15.4375H25.1875V13.8125Z" fill="#779426"/>
<path d="M20.421 15.5217L21.8283 14.7092L22.6408 16.1164L21.2335 16.9289L20.421 15.5217Z" fill="#779426"/>
<path d="M17.1499 19.3947L17.9624 17.9875L19.3697 18.8L18.5572 20.2072L17.1499 19.3947Z" fill="#779426"/>
<path d="M16.25 22.75H17.875V24.375H16.25V22.75Z" fill="#779426"/>
<path d="M17.1508 27.731L18.558 26.9185L19.3705 28.3258L17.9633 29.1383L17.1508 27.731Z" fill="#779426"/>
<path d="M32.6309 28.3339L33.4434 26.9266L34.8506 27.7391L34.0381 29.1464L32.6309 28.3339Z" fill="#779426"/>
<path d="M34.125 22.75H35.75V24.375H34.125V22.75Z" fill="#779426"/>
<path d="M32.6288 18.7923L34.036 17.9798L34.8485 19.387L33.4413 20.1995L32.6288 18.7923Z" fill="#779426"/>
<path d="M29.3594 16.1229L30.1719 14.7156L31.5791 15.5281L30.7666 16.9354L29.3594 16.1229Z" fill="#779426"/>
<path d="M26 42.25C25.5179 42.25 25.0466 42.393 24.6458 42.6608C24.245 42.9286 23.9325 43.3093 23.748 43.7547C23.5636 44.2001 23.5153 44.6902 23.6093 45.163C23.7034 45.6359 23.9355 46.0702 24.2764 46.4111C24.6173 46.752 25.0516 46.9841 25.5245 47.0782C25.9973 47.1722 26.4874 47.1239 26.9328 46.9395C27.3782 46.755 27.7589 46.4425 28.0267 46.0417C28.2945 45.6409 28.4375 45.1696 28.4375 44.6875C28.4375 44.041 28.1807 43.421 27.7236 42.9639C27.2665 42.5068 26.6465 42.25 26 42.25ZM26 45.5C25.8393 45.5 25.6822 45.4523 25.5486 45.3631C25.415 45.2738 25.3108 45.1469 25.2493 44.9984C25.1879 44.85 25.1718 44.6866 25.2031 44.529C25.2345 44.3714 25.3118 44.2266 25.4255 44.113C25.5391 43.9993 25.6839 43.922 25.8415 43.8906C25.9991 43.8593 26.1625 43.8754 26.3109 43.9368C26.4594 43.9983 26.5863 44.1025 26.6756 44.2361C26.7648 44.3697 26.8125 44.5268 26.8125 44.6875C26.8125 44.903 26.7269 45.1097 26.5745 45.262C26.4222 45.4144 26.2155 45.5 26 45.5Z" fill="#779426"/>
</svg>
