<svg width="23" height="23" viewBox="0 0 23 23" fill="none" xmlns="http://www.w3.org/2000/svg">
<path fill-rule="evenodd" clip-rule="evenodd" d="M22.6934 1.78675C22.7906 1.68956 22.8677 1.57418 22.9203 1.44719C22.9729 1.32021 23 1.1841 23 1.04665C23 0.909206 22.9729 0.773104 22.9203 0.646118C22.8677 0.519131 22.7906 0.403749 22.6934 0.306558C22.5963 0.209367 22.4809 0.132271 22.3539 0.0796719C22.2269 0.0270726 22.0908 0 21.9533 0C21.8159 0 21.6798 0.0270726 21.5528 0.0796719C21.4258 0.132271 21.3104 0.209367 21.2132 0.306558L11.5 10.0219L1.78675 0.306558C1.68956 0.209367 1.57418 0.132271 1.44719 0.0796719C1.32021 0.0270726 1.1841 1.02407e-09 1.04665 0C0.909206 -1.02407e-09 0.773104 0.0270726 0.646118 0.0796719C0.519131 0.132271 0.403749 0.209367 0.306558 0.306558C0.209367 0.403749 0.132271 0.519131 0.0796719 0.646118C0.0270726 0.773104 -1.02407e-09 0.909206 0 1.04665C1.02407e-09 1.1841 0.0270726 1.32021 0.0796719 1.44719C0.132271 1.57418 0.209367 1.68956 0.306558 1.78675L10.0219 11.5L0.306558 21.2132C0.110272 21.4095 0 21.6758 0 21.9533C0 22.2309 0.110272 22.4972 0.306558 22.6934C0.502844 22.8897 0.769065 23 1.04665 23C1.32425 23 1.59047 22.8897 1.78675 22.6934L11.5 12.9781L21.2132 22.6934C21.4095 22.8897 21.6758 23 21.9533 23C22.2309 23 22.4972 22.8897 22.6934 22.6934C22.8897 22.4972 23 22.2309 23 21.9533C23 21.6758 22.8897 21.4095 22.6934 21.2132L12.9781 11.5L22.6934 1.78675Z" fill="#779426"/>
</svg>
