<svg width="19" height="21" viewBox="0 0 19 21" fill="none" xmlns="http://www.w3.org/2000/svg">
<path d="M11.6111 0H7.38889C3.325 0 0 3.30612 0 7.34694V10.4956C0 13.3294 1.6625 15.9271 4.22222 17.1341V20.6501C4.22222 20.965 4.61806 21.1224 4.82917 20.8863L7.89028 17.8426H11.6111C15.675 17.8426 19 14.5364 19 10.4956V7.34694C19 3.30612 15.675 0 11.6111 0ZM14.3819 13.7755L13.3 14.8251C12.1653 15.9271 9.23611 14.6676 6.65 12.0437C4.06389 9.41983 2.92917 6.48105 4.01111 5.37901L5.06667 4.32945C5.4625 3.93586 6.12222 3.9621 6.57083 4.35569L8.10139 5.93003C8.65556 6.48105 8.41806 7.42566 7.70556 7.63557C7.20417 7.793 6.86111 8.34402 7.01944 8.84257C7.28333 9.99708 8.76111 11.4665 9.86944 11.7551C10.3708 11.8601 10.925 11.5977 11.1097 11.0991C11.3472 10.3907 12.2972 10.1808 12.825 10.7318L14.3556 12.3061C14.7778 12.6735 14.7778 13.3294 14.3819 13.7755ZM10.45 4.98542C10.3444 4.98542 10.2389 4.98542 10.1333 5.01166C9.94861 5.0379 9.76389 4.88047 9.7375 4.69679C9.71111 4.51312 9.86944 4.32945 10.0542 4.30321C10.1861 4.27697 10.3181 4.27697 10.45 4.27697C12.3764 4.27697 13.9597 5.85131 13.9597 7.76676C13.9597 7.89796 13.9597 8.02915 13.9333 8.16035C13.9069 8.34402 13.7222 8.50146 13.5375 8.47522C13.3528 8.44898 13.1944 8.26531 13.2208 8.08163C13.2208 7.97668 13.2472 7.87172 13.2472 7.76676C13.2736 6.2449 12.0069 4.98542 10.45 4.98542ZM12.5611 7.793C12.5611 7.97668 12.4028 8.13411 12.2181 8.13411C12.0333 8.13411 11.875 7.97668 11.875 7.793C11.875 7.03207 11.2417 6.40233 10.4764 6.40233C10.2917 6.40233 10.1333 6.2449 10.1333 6.06122C10.1333 5.87755 10.2917 5.72012 10.4764 5.72012C11.6111 5.69388 12.5611 6.63848 12.5611 7.793ZM15.2528 8.92128C15.2 9.10496 15.0153 9.23615 14.8042 9.18367C14.6194 9.1312 14.5139 8.94752 14.5667 8.76385C14.6458 8.44898 14.6722 8.13411 14.6722 7.793C14.6722 5.48397 12.7722 3.59475 10.45 3.59475C10.3444 3.59475 10.2389 3.59475 10.1333 3.59475C9.94861 3.59475 9.76389 3.46356 9.76389 3.27988C9.76389 3.09621 9.89583 2.91254 10.0806 2.91254C10.2125 2.91254 10.3444 2.8863 10.45 2.8863C13.1681 2.8863 15.3847 5.09038 15.3847 7.793C15.3847 8.16035 15.3319 8.55394 15.2528 8.92128Z" fill="#383606"/>
</svg>
